<svg xmlns="http://www.w3.org/2000/svg" width="36.364" height="25" viewBox="0 0 36.364 25">
  <g id="eye" transform="translate(0 -5.625)">
    <path id="Контур_36051" data-name="Контур 36051" d="M36.364,18.125s-6.818-12.5-18.182-12.5S0,18.125,0,18.125s6.818,12.5,18.182,12.5S36.364,18.125,36.364,18.125Zm-33.7,0a29.85,29.85,0,0,0,3.773,4.643c2.925,2.929,6.925,5.584,11.743,5.584S27,25.7,29.927,22.768A29.85,29.85,0,0,0,33.7,18.125a29.847,29.847,0,0,0-3.773-4.643C27,10.552,23,7.9,18.182,7.9S9.366,10.552,6.436,13.482a29.847,29.847,0,0,0-3.773,4.643Z" fill="#fff" fill-rule="evenodd"/>
    <path id="Контур_36052" data-name="Контур 36052" d="M18.08,12.4a5.682,5.682,0,1,0,5.682,5.682A5.682,5.682,0,0,0,18.08,12.4ZM10.125,18.08a7.955,7.955,0,1,1,7.955,7.955A7.955,7.955,0,0,1,10.125,18.08Z" transform="translate(0.102 0.045)" fill="#fff" fill-rule="evenodd"/>
  </g>
</svg>
