<svg xmlns="http://www.w3.org/2000/svg" width="44" height="44" viewBox="0 0 44 44">
  <g id="Сгруппировать_20051" data-name="Сгруппировать 20051" transform="translate(0.159)">
    <circle id="Эллипс_181" data-name="Эллипс 181" cx="22" cy="22" r="22" transform="translate(-0.159)" fill="#e31c23"/>
    <g id="instagram_2_" data-name="instagram (2)" transform="translate(1.768 8.85)">
      <path id="Контур_36053" data-name="Контур 36053" d="M19.2,0H7.127A7.136,7.136,0,0,0,0,7.128V19.2a7.136,7.136,0,0,0,7.128,7.128H19.2A7.136,7.136,0,0,0,26.331,19.2V7.128A7.136,7.136,0,0,0,19.2,0Zm5.584,19.2A5.59,5.59,0,0,1,19.2,24.788H7.127A5.59,5.59,0,0,1,1.543,19.2V7.128A5.59,5.59,0,0,1,7.127,1.544H19.2a5.59,5.59,0,0,1,5.584,5.584Zm0,0" transform="translate(0.001 0)" fill="#fff"/>
      <path id="Контур_36054" data-name="Контур 36054" d="M123.2,116a7.2,7.2,0,1,0,7.2,7.2A7.208,7.208,0,0,0,123.2,116Zm0,12.856a5.656,5.656,0,1,1,5.656-5.656A5.663,5.663,0,0,1,123.2,128.86Zm0,0" transform="translate(-110.038 -110.038)" fill="#fff"/>
      <path id="Контур_36055" data-name="Контур 36055" d="M360.1,66.285a2.128,2.128,0,1,0,2.128,2.128A2.13,2.13,0,0,0,360.1,66.285Zm0,2.711a.584.584,0,1,1,.584-.584A.584.584,0,0,1,360.1,69Zm0,0" transform="translate(-339.566 -62.876)" fill="#fff"/>
    </g>
  </g>
</svg>
