<svg xmlns="http://www.w3.org/2000/svg" width="44" height="44" viewBox="0 0 44 44">
  <g id="Сгруппировать_20053" data-name="Сгруппировать 20053" transform="translate(0.026)">
    <circle id="Эллипс_179" data-name="Эллипс 179" cx="22" cy="22" r="22" transform="translate(-0.026)" fill="#e31c23"/>
    <g id="XMLID_801_" transform="translate(3.539 8.85)">
      <path id="XMLID_802_" d="M10.464,99.73H5.339a.412.412,0,0,0-.412.412v16.465a.412.412,0,0,0,.412.412h5.125a.412.412,0,0,0,.412-.412V100.142A.412.412,0,0,0,10.464,99.73Z" transform="translate(-4.521 -91.545)" fill="none" stroke="#fff" stroke-width="1"/>
      <path id="XMLID_803_" d="M3.382.341A3.379,3.379,0,1,0,6.761,3.719,3.384,3.384,0,0,0,3.382.341Z" transform="translate(0 -0.341)" fill="none" stroke="#fff" stroke-width="1"/>
      <path id="XMLID_804_" d="M116.411,94.761a6.019,6.019,0,0,0-4.5,1.89V95.582a.412.412,0,0,0-.412-.412h-4.908a.412.412,0,0,0-.412.412v16.465a.412.412,0,0,0,.412.412H111.7a.412.412,0,0,0,.412-.412V103.9c0-2.745.746-3.815,2.659-3.815,2.084,0,2.25,1.714,2.25,3.956v8.005a.412.412,0,0,0,.412.412h5.116a.412.412,0,0,0,.412-.412v-9.031C122.962,98.934,122.183,94.761,116.411,94.761Z" transform="translate(-97.432 -86.985)" fill="none" stroke="#fff" stroke-width="1"/>
    </g>
  </g>
</svg>
