<svg id="Слой_2" data-name="Слой 2" xmlns="http://www.w3.org/2000/svg" width="84.75" height="25.52" viewBox="0 0 84.75 25.52">
  <g id="Слой_1" data-name="Слой 1" transform="translate(0.01 0)">
    <path id="Контур_3381" data-name="Контур 3381" d="M28.91,12.89l.85-1.28a9.17,9.17,0,0,0,4.9,1.4,4.28,4.28,0,0,0,2.24-.43,1.21,1.21,0,0,0,.64-1,1.28,1.28,0,0,0-.44-1,4.11,4.11,0,0,0-1.59-.7L32.22,9A6,6,0,0,1,30,7.79a2.58,2.58,0,0,1-.86-2c0-1.49,1-2.47,2.95-2.94a11.92,11.92,0,0,1,2.64-.25,9.6,9.6,0,0,1,3.04.4A8.58,8.58,0,0,1,40.1,4.16l-.85,1.28a11.4,11.4,0,0,0-2-1,7,7,0,0,0-2.48-.42,3.73,3.73,0,0,0-1.92.36,1.06,1.06,0,0,0-.55.88c0,.72.64,1.26,1.92,1.63l3.3,1c2.14.62,3.2,1.69,3.2,3.2,0,2.28-2,3.41-6.08,3.41a11,11,0,0,1-4.68-1,6.28,6.28,0,0,1-1.05-.61Z"/>
    <path id="Контур_3382" data-name="Контур 3382" d="M41.26,8.53A5.64,5.64,0,0,1,43.07,4.1a6.84,6.84,0,0,1,4.7-1.54,7.84,7.84,0,0,1,3.83.94,5.06,5.06,0,0,1,1,.66l-.85,1.28A6.21,6.21,0,0,0,48,4.05a3.13,3.13,0,0,0-3.24,2.43,6.84,6.84,0,0,0-.27,2q0,3.42,2.21,4.23a4.61,4.61,0,0,0,1.52.25,6.15,6.15,0,0,0,3.73-1.4l.85,1.28a6.89,6.89,0,0,1-3.43,1.49,12,12,0,0,1-1.78.11,7.85,7.85,0,0,1-2.34-.39,6,6,0,0,1-2.13-1.16,5.48,5.48,0,0,1-1.86-4.36Z"/>
    <path id="Контур_3383" data-name="Контур 3383" d="M53.72,14.07V7.57a4.26,4.26,0,0,1,1.37-3.38,5.86,5.86,0,0,1,4-1.2h3.19V4.48H59.69a3,3,0,0,0-2.21.78,3.13,3.13,0,0,0-.77,2.31v6.5Z"/>
    <path id="Контур_3384" data-name="Контур 3384" d="M62.34,8.53A5.61,5.61,0,0,1,64.15,4.1a6.82,6.82,0,0,1,4.68-1.54,8.21,8.21,0,0,1,2.64.4,5.76,5.76,0,0,1,2,1.14,5.61,5.61,0,0,1,1.81,4.43,5.55,5.55,0,0,1-1.81,4.41,6.75,6.75,0,0,1-4.68,1.55,6.79,6.79,0,0,1-4.69-1.55,5.55,5.55,0,0,1-1.76-4.41Zm3.19,0a5.41,5.41,0,0,0,1,3.52,2.84,2.84,0,0,0,2.32,1.06,3,3,0,0,0,3-2.48,7.14,7.14,0,0,0,.27-2.1,5.51,5.51,0,0,0-1-3.54A2.84,2.84,0,0,0,68.8,3.94a3,3,0,0,0-3,2.48,7.21,7.21,0,0,0-.27,2.11Z"/>
    <path id="Контур_3385" data-name="Контур 3385" d="M76.71,14.07V0h3V14.07Z"/>
    <path id="Контур_3386" data-name="Контур 3386" d="M81.61,14.07V0h3V14.07Z"/>
    <path id="Контур_3387" data-name="Контур 3387" d="M29.82,20.26a1.41,1.41,0,0,1,1.29-.79,1.08,1.08,0,0,1,1.11.76,1.38,1.38,0,0,1,1.29-.76,1.14,1.14,0,0,1,1.24,1.22v2.77h-.47V20.82a.81.81,0,0,0-.9-.92,1,1,0,0,0-1.08,1.18v2.38h-.47v-2.6c0-.59-.22-1-.85-1-.79,0-1.13.6-1.13,1.36v2.2h-.48V19.58h.45Z"/>
    <path id="Контур_3388" data-name="Контур 3388" d="M37.61,23.59a1.8,1.8,0,0,1-1.79-2,1.88,1.88,0,0,1,1.78-2.1,1.8,1.8,0,0,1,1.71,2v.13h-3c0,.82.38,1.57,1.31,1.57a1.15,1.15,0,0,0,1.19-1h.46a1.6,1.6,0,0,1-1.66,1.4Zm0-3.72c-.84,0-1.18.65-1.27,1.38h2.52c-.08-.86-.55-1.38-1.28-1.38Z"/>
    <path id="Контур_3389" data-name="Контур 3389" d="M43.75,23.46h-.43V22.7a1.4,1.4,0,0,1-1.4.87c-1.07,0-1.75-.79-1.75-2.05s.68-2.05,1.74-2.05a1.41,1.41,0,0,1,1.38.83V18.08h.46Zm-3.1-1.95c0,1,.51,1.68,1.32,1.68s1.33-.64,1.33-1.67c0-.84-.39-1.66-1.34-1.66s-1.31.65-1.31,1.65Z"/>
    <path id="Контур_3390" data-name="Контур 3390" d="M45.54,18.84h-.48v-.78h.48Zm0,4.62h-.48V19.58h.48Z"/>
    <path id="Контур_3391" data-name="Контур 3391" d="M50.23,23.44a1.15,1.15,0,0,1-.37.06c-.46,0-.51-.36-.51-.71a1.62,1.62,0,0,1-1.46.78c-.8,0-1.27-.41-1.27-1.09s.48-1.1,1.44-1.2a2.85,2.85,0,0,0,1.13-.21c.1-.06.14-.17.14-.37,0-.64-.39-.83-1-.83a.935.935,0,0,0-1.06.91h-.45c0-.83.6-1.31,1.56-1.31s1.43.39,1.43,1.12v2.12c0,.23,0,.39.25.39a.62.62,0,0,0,.18,0Zm-2-1.82c-.49.07-1.16.18-1.16.81,0,.46.35.74.9.74A1.22,1.22,0,0,0,49.33,22v-.63a2.47,2.47,0,0,1-1.06.25Z"/>
    <path id="Контур_3392" data-name="Контур 3392" d="M55.93,20.71c0-.59-.42-.84-1-.84s-.9.24-.9.64.38.56,1.11.73,1.44.34,1.44,1.15-.62,1.19-1.54,1.19a1.414,1.414,0,0,1-1.59-1.39h.46c0,.65.43,1,1.15,1s1.05-.3,1.05-.76-.65-.66-1.06-.76c-.64-.15-1.5-.25-1.5-1.1,0-.68.55-1.1,1.43-1.1s1.47.41,1.47,1.24Z"/>
    <path id="Контур_3393" data-name="Контур 3393" d="M61.1,21.53a1.8,1.8,0,0,1-1.82,2,1.83,1.83,0,0,1-1.86-2.05,1.85,1.85,0,1,1,3.68,0Zm-3.19,0c0,1,.52,1.66,1.37,1.66s1.35-.64,1.35-1.65-.53-1.66-1.36-1.66-1.36.64-1.36,1.64Z"/>
    <path id="Контур_3394" data-name="Контур 3394" d="M62.68,23.46h-.46V18.08h.46Z"/>
    <path id="Контур_3395" data-name="Контур 3395" d="M67.11,23.46h-.44v-.72a1.4,1.4,0,0,1-1.36.83A1.25,1.25,0,0,1,64,22.16V19.58h.48V22c0,.76.23,1.2,1,1.2a1.279,1.279,0,0,0,1.21-1.44V19.58h.47Z"/>
    <path id="Контур_3396" data-name="Контур 3396" d="M70,20h-.8v2.47c0,.39,0,.65.49.65H70v.41a2.93,2.93,0,0,1-.41,0c-.34,0-.72-.07-.81-.44a3.36,3.36,0,0,1,0-.86V20H68v-.38h.68V18.39h.47v1.19H70Z"/>
    <path id="Контур_3397" data-name="Контур 3397" d="M71.51,18.84H71v-.78h.47Zm0,4.62H71V19.58h.47Z"/>
    <path id="Контур_3398" data-name="Контур 3398" d="M76.29,21.53a1.81,1.81,0,0,1-1.83,2,1.83,1.83,0,0,1-1.85-2.05,1.85,1.85,0,1,1,3.68,0Zm-3.2,0c0,1,.52,1.66,1.38,1.66s1.34-.64,1.34-1.65-.53-1.66-1.36-1.66-1.36.64-1.36,1.64Z"/>
    <path id="Контур_3399" data-name="Контур 3399" d="M77.83,20.31a1.43,1.43,0,0,1,1.37-.84,1.23,1.23,0,0,1,1.35,1.35v2.64h-.48V21c0-.8-.4-1.08-1-1.08a1.3,1.3,0,0,0-1.22,1.47v2.1h-.48V19.58h.45Z"/>
    <path id="Контур_3400" data-name="Контур 3400" d="M84.15,20.71c-.05-.59-.43-.84-1.05-.84s-.91.24-.91.64.38.56,1.11.73,1.44.34,1.44,1.15-.62,1.19-1.54,1.19a1.414,1.414,0,0,1-1.59-1.39h.46c0,.65.43,1,1.15,1s1.06-.3,1.06-.76-.66-.66-1.07-.76c-.63-.15-1.49-.25-1.49-1.1,0-.68.54-1.1,1.42-1.1s1.47.41,1.47,1.24Z"/>
    <path id="Контур_3401" data-name="Контур 3401" d="M12.75,0A12.76,12.76,0,1,0,25.51,12.75,12.76,12.76,0,0,0,12.75,0ZM19.1,23a4,4,0,0,1-1,.46,16,16,0,0,0-2.34-.82L8,20.35a14,14,0,0,1-5.28-2.74,6.08,6.08,0,0,1-2-4.82,6.31,6.31,0,0,1,.66-2.92,5.7,5.7,0,0,0,1.38,1.79A14,14,0,0,0,8,14.41l7.8,2.29a9.88,9.88,0,0,1,3.75,1.67,3,3,0,0,1,1.05,2.28A2.83,2.83,0,0,1,19.1,23ZM17.26,11,9.43,8.7Q4.89,7.4,4.89,4.85A2.48,2.48,0,0,1,6.2,2.76a4.6,4.6,0,0,1,1.57-.59,14.46,14.46,0,0,0,1.66.58L17.26,5q7.56,2.2,7.56,7.58a6.84,6.84,0,0,1-.67,3.05C23.11,13.58,20.81,12,17.26,11Z" fill="#991426"/>
  </g>
</svg>
