<svg xmlns="http://www.w3.org/2000/svg" width="28.188" height="28.188" viewBox="0 0 28.188 28.188">
  <g id="search" transform="translate(0.5 0.5)">
    <g id="Контур_36049" data-name="Контур 36049" transform="translate(-5.59 -5.589)" fill="#fff" fill-rule="evenodd">
      <path d="M 31.07960891723633 33.02732086181641 C 30.5592098236084 33.02732086181641 30.06984901428223 32.82475280761719 29.70170021057129 32.45694351196289 L 23.1596794128418 25.91494178771973 C 22.79105949401855 25.54679298400879 22.58798980712891 25.05696296691895 22.58798980712891 24.53581237792969 C 22.58798980712891 24.19682884216309 22.67390060424805 23.87110710144043 22.83544158935547 23.58346176147461 L 22.73344039916992 23.58346176147461 L 23.15729904174805 23.15679168701172 C 23.52557945251465 22.78805160522461 24.01540946960449 22.58498191833496 24.53655052185059 22.58498191833496 C 25.05768966674805 22.58498191833496 25.54751014709473 22.78806304931641 25.91577911376953 23.15680122375488 L 32.45761108398438 29.69861221313477 C 33.21802139282227 30.45831298828125 33.21860122680664 31.69515228271484 32.45882034301758 32.45565032958984 C 32.09051895141602 32.82430267333984 31.60070991516113 33.02732086181641 31.07960891723633 33.02732086181641 Z" stroke="none"/>
      <path d="M 24.53653907775879 22.83498382568359 C 24.08548927307129 22.83498382568359 23.65293884277344 23.01431274414062 23.33419036865234 23.33346176147461 L 23.33646011352539 23.33346176147461 C 23.01731109619141 23.65220260620117 22.83798980712891 24.08475303649902 22.83798980712891 24.53581237792969 C 22.83798980712891 24.98687171936035 23.01731109619141 25.4194221496582 23.33646011352539 25.73816299438477 L 29.87838935852051 32.28008270263672 C 30.54242897033691 32.94350051879883 31.6185417175293 32.94300079345703 32.28195953369141 32.27896118164062 C 32.94536972045898 31.61492156982422 32.94486999511719 30.53880310058594 32.28083038330078 29.87539291381836 L 25.73888969421387 23.33346176147461 C 25.4201488494873 23.01431274414062 24.98760032653809 22.83498382568359 24.53653907775879 22.83498382568359 M 24.53653907775879 22.33498382568359 C 25.1245288848877 22.33498382568359 25.67716979980469 22.56410217285156 26.09267044067383 22.98013305664062 L 32.63438034057617 29.52184295654297 C 33.49224090576172 30.37888145446777 33.49288940429688 31.77432250976562 32.63568115234375 32.63235473632812 C 32.22014999389648 33.04826354980469 31.66753005981445 33.27732086181641 31.07960891723633 33.27732086181641 C 30.49246978759766 33.27732086181641 29.94037055969238 33.04878234863281 29.52499961853027 32.63380432128906 L 22.98291015625 26.09171295166016 C 22.56710815429688 25.67645263671875 22.33798980712891 25.12380218505859 22.33798980712891 24.53581237792969 C 22.33798980712891 24.29331588745117 22.37697219848633 24.05679321289062 22.45195007324219 23.83346176147461 L 22.13042068481445 23.83346176147461 L 22.98041152954102 22.98013305664062 C 23.39591979980469 22.56410217285156 23.94857025146484 22.33498382568359 24.53653907775879 22.33498382568359 Z" stroke="none" fill="#fff"/>
    </g>
    <g id="Контур_36050" data-name="Контур 36050" fill="#fff" fill-rule="evenodd">
      <path d="M 11.04546070098877 22.34092140197754 C 8.02833080291748 22.34092140197754 5.191790580749512 21.16599082946777 3.058360815048218 19.03256034851074 C 0.9249306917190552 16.89912986755371 -0.2499992996454239 14.06259059906006 -0.2499992996454239 11.04546070098877 C -0.2499992996454239 8.02833080291748 0.9249306917190552 5.191790580749512 3.058360815048218 3.058360815048218 C 5.191790580749512 0.9249306917190552 8.02833080291748 -0.2499992996454239 11.04546070098877 -0.2499992996454239 C 14.06259059906006 -0.2499992996454239 16.89912986755371 0.9249306917190552 19.03256034851074 3.058360815048218 C 21.16599082946777 5.191790580749512 22.34092140197754 8.02833080291748 22.34092140197754 11.04546070098877 C 22.34092140197754 14.06259059906006 21.16599082946777 16.89912986755371 19.03256034851074 19.03256034851074 C 16.89912986755371 21.16599082946777 14.06259059906006 22.34092140197754 11.04546070098877 22.34092140197754 Z M 11.04546070098877 1.949300646781921 C 6.029820919036865 1.949300646781921 1.949300646781921 6.029820919036865 1.949300646781921 11.04546070098877 C 1.949300646781921 16.06110000610352 6.029820919036865 20.14162063598633 11.04546070098877 20.14162063598633 C 16.06110000610352 20.14162063598633 20.14162063598633 16.06110000610352 20.14162063598633 11.04546070098877 C 20.14162063598633 6.029820919036865 16.06110000610352 1.949300646781921 11.04546070098877 1.949300646781921 Z" stroke="none"/>
      <path d="M 11.04546070098877 22.09092140197754 C 17.14570045471191 22.09092140197754 22.09092140197754 17.14570045471191 22.09092140197754 11.04546070098877 C 22.09092140197754 4.945220470428467 17.14570045471191 7.009887781350699e-07 11.04546070098877 7.009887781350699e-07 C 4.945220470428467 7.009887781350699e-07 7.009887781350699e-07 4.945220470428467 7.009887781350699e-07 11.04546070098877 C 7.009887781350699e-07 17.14570045471191 4.945220470428467 22.09092140197754 11.04546070098877 22.09092140197754 M 11.04546070098877 1.699300646781921 C 16.20720100402832 1.699300646781921 20.39162063598633 5.883720874786377 20.39162063598633 11.04546070098877 C 20.39162063598633 16.20720100402832 16.20720100402832 20.39162063598633 11.04546070098877 20.39162063598633 C 5.883720874786377 20.39162063598633 1.699300646781921 16.20720100402832 1.699300646781921 11.04546070098877 C 1.699300646781921 5.883720874786377 5.883720874786377 1.699300646781921 11.04546070098877 1.699300646781921 M 11.04546070098877 22.59092140197754 C 7.961560726165771 22.59092140197754 5.062240600585938 21.38998031616211 2.881590604782104 19.20933151245117 C 0.700940728187561 17.0286808013916 -0.4999992847442627 14.12936115264893 -0.4999992847442627 11.04546070098877 C -0.4999992847442627 7.961560726165771 0.700940728187561 5.062240600585938 2.881590604782104 2.881590604782104 C 5.062240600585938 0.700940728187561 7.961560726165771 -0.4999992847442627 11.04546070098877 -0.4999992847442627 C 14.12936115264893 -0.4999992847442627 17.0286808013916 0.700940728187561 19.20933151245117 2.881590604782104 C 21.38998031616211 5.062240600585938 22.59092140197754 7.961560726165771 22.59092140197754 11.04546070098877 C 22.59092140197754 14.12936115264893 21.38998031616211 17.0286808013916 19.20933151245117 19.20933151245117 C 17.0286808013916 21.38998031616211 14.12936115264893 22.59092140197754 11.04546070098877 22.59092140197754 Z M 11.04546070098877 2.199300765991211 C 6.167670726776123 2.199300765991211 2.199300765991211 6.167670726776123 2.199300765991211 11.04546070098877 C 2.199300765991211 15.92325115203857 6.167670726776123 19.89162063598633 11.04546070098877 19.89162063598633 C 15.92325115203857 19.89162063598633 19.89162063598633 15.92325115203857 19.89162063598633 11.04546070098877 C 19.89162063598633 6.167670726776123 15.92325115203857 2.199300765991211 11.04546070098877 2.199300765991211 Z" stroke="none" fill="#fff"/>
    </g>
  </g>
</svg>
