<svg xmlns="http://www.w3.org/2000/svg" width="44" height="44" viewBox="0 0 44 44">
  <g id="Сгруппировать_20049" data-name="Сгруппировать 20049" transform="translate(-0.248)">
    <circle id="Эллипс_183" data-name="Эллипс 183" cx="22" cy="22" r="22" transform="translate(0.248)" fill="#e31c23"/>
    <g id="XMLID_1_" transform="translate(0 12.389)">
      <path id="XMLID_807_" d="M27.733,77.653a43.868,43.868,0,0,1,3.156,3.174,9.225,9.225,0,0,1,1.131,1.63c.435.842.041,1.769-.714,1.819l-4.694,0a3.624,3.624,0,0,1-2.989-1.215c-.65-.662-1.252-1.367-1.877-2.051a4.445,4.445,0,0,0-.845-.751.981.981,0,0,0-1.563.38,4.932,4.932,0,0,0-.494,2.19c-.05,1.105-.384,1.4-1.495,1.447a12,12,0,0,1-6.717-1.444A14.841,14.841,0,0,1,6.111,78.6a56.973,56.973,0,0,1-5.949-10.6c-.376-.836-.1-1.285.821-1.3,1.531-.03,3.063-.028,4.6,0a1.35,1.35,0,0,1,1.275.954A28.489,28.489,0,0,0,9.97,73.419a4.923,4.923,0,0,0,1.177,1.293.715.715,0,0,0,1.215-.357,4.005,4.005,0,0,0,.27-1.211,18.029,18.029,0,0,0-.075-4.243,1.769,1.769,0,0,0-1.506-1.618c-.449-.085-.382-.252-.165-.508a1.688,1.688,0,0,1,1.44-.717H17.63c.835.165,1.021.54,1.135,1.38l0,5.893c-.009.325.163,1.291.749,1.506.469.153.778-.222,1.06-.519a18.274,18.274,0,0,0,2.987-4.591c.359-.725.668-1.479.968-2.232a1.136,1.136,0,0,1,1.2-.821l5.106,0a2.693,2.693,0,0,1,.451.027c.86.147,1.1.517.83,1.357a12.749,12.749,0,0,1-2.03,3.52c-.852,1.178-1.762,2.316-2.607,3.5-.776,1.082-.714,1.628.25,2.568Zm0,0" transform="translate(3 -66.058)" fill="none" stroke="#fff" stroke-width="1" fill-rule="evenodd"/>
    </g>
  </g>
</svg>
