<svg xmlns="http://www.w3.org/2000/svg" width="44" height="44" viewBox="0 0 44 44">
  <g id="Сгруппировать_20052" data-name="Сгруппировать 20052" transform="translate(-0.177)">
    <circle id="Эллипс_180" data-name="Эллипс 180" cx="22" cy="22" r="22" transform="translate(0.177)" fill="#e31c23"/>
    <g id="youtube" transform="translate(1.772 10.619)">
      <path id="Контур_36058" data-name="Контур 36058" d="M203.719,170.173l-6.48-4.05a.81.81,0,0,0-1.239.687v8.1a.81.81,0,0,0,1.239.687l6.48-4.05a.81.81,0,0,0,0-1.374Zm-6.1,3.276v-5.177l4.142,2.589Z" transform="translate(-185.415 -160.33)" fill="#fff"/>
      <path id="Контур_36059" data-name="Контур 36059" d="M23.6,61H4.05A4.055,4.055,0,0,0,0,65.05V78.01a4.055,4.055,0,0,0,4.05,4.05H23.6a4.055,4.055,0,0,0,4.05-4.05V65.05A4.055,4.055,0,0,0,23.6,61Zm2.43,17.01a2.433,2.433,0,0,1-2.43,2.43H4.05a2.433,2.433,0,0,1-2.43-2.43V65.05a2.433,2.433,0,0,1,2.43-2.43H23.6a2.433,2.433,0,0,1,2.43,2.43Z" transform="translate(0 -61)" fill="#fff"/>
    </g>
  </g>
</svg>
